<svg id="Layer_1" data-name="Layer 1" xmlns="http://www.w3.org/2000/svg" viewBox="0 0 275.76529 243.9836"><defs><style>.cls-1{fill:url(#linear-gradient)}.cls-2{fill:url(#linear-gradient-2)}.cls-3{fill:url(#linear-gradient-3)}</style><linearGradient id="linear-gradient" x1="4979.474" y1="10122.533" x2="5087.703" y2="10103.45" gradientTransform="scale(-1 1) rotate(-45 -9605.065 11330.987)" gradientUnits="userSpaceOnUse"><stop stop-color="#fff" offset=".2" stop-opacity="0"/><stop stop-color="#fff" offset=".287" stop-opacity=".03"/><stop stop-color="#fff" offset=".501" stop-opacity=".2"/><stop stop-color="#fff" offset=".793" stop-opacity=".742"/><stop stop-color="#fff" offset="1"/></linearGradient><linearGradient id="linear-gradient-2" x1="-.357" y1="51.748" x2="63.087" y2="88.378" gradientTransform="matrix(1 0 0 -1 -5.791 224.135)" gradientUnits="userSpaceOnUse"><stop stop-color="#fff" offset=".08"/><stop stop-color="#fff" offset=".753" stop-opacity=".07"/><stop stop-color="#fff" offset=".875" stop-opacity="0"/></linearGradient><linearGradient id="linear-gradient-3" x1="144.665" y1="44.837" x2="241.172" y2="125.816" gradientTransform="matrix(1 0 0 -1 -5.791 224.135)" gradientUnits="userSpaceOnUse"><stop stop-color="#fff" offset=".138" stop-opacity="0"/><stop stop-color="#fff" offset=".32" stop-opacity=".07"/><stop stop-color="#fff" offset=".847" stop-opacity=".764"/><stop stop-color="#fff" offset=".947"/></linearGradient></defs><title>cloud-svg-mark</title><path fill="#fff" d="M36.697 97.367a5.195 5.195 0 0 1-2.604-.7L9.19 82.288a5.217 5.217 0 1 1 5.217-9.037L39.31 87.63a5.218 5.218 0 0 1-2.613 9.737zM79.293 54.781a5.215 5.215 0 0 1-4.524-2.61L60.39 27.268a5.218 5.218 0 0 1 9.037-5.218l14.38 24.905a5.219 5.219 0 0 1-4.514 7.827zM137.46 39.192a5.217 5.217 0 0 1-5.217-5.217V5.217a5.218 5.218 0 0 1 10.435 0v28.758a5.217 5.217 0 0 1-5.217 5.217zM195.63 54.781a5.219 5.219 0 0 1-4.514-7.827l14.379-24.905a5.218 5.218 0 0 1 9.037 5.218l-14.379 24.905a5.216 5.216 0 0 1-4.523 2.61zM238.225 97.367a5.218 5.218 0 0 1-2.613-9.737l24.904-14.379a5.217 5.217 0 1 1 5.217 9.037L240.83 96.667a5.195 5.195 0 0 1-2.604.7z"/><path fill="#fff" class="cls-1" d="M71.232 216.548A93.66 93.66 0 0 1 203.687 84.09a95.03 95.03 0 0 1 7.451 8.388 93.907 93.907 0 0 1 4.55 6.303l-8.709 5.748a83.29 83.29 0 0 0-4.04-5.597 84.494 84.494 0 0 0-6.628-7.46 83.226 83.226 0 0 0-117.698 117.7z"/><path fill="#fff" d="M204.23 243.984c-.183 0-.364 0-.548-.002h-143.6a60.495 60.495 0 0 1-60.08-60.944l10.435.078a50.058 50.058 0 0 0 49.685 50.43h143.6c.152.002.31.003.462.003a61.117 61.117 0 0 0 45.582-101.861l7.778-6.957a71.552 71.552 0 0 1-53.315 119.253z"/><path fill="#fff" class="cls-2" d="M10.437 183.116l-10.435-.078a60.43 60.43 0 0 1 50.409-59.207l1.742 10.29a50.006 50.006 0 0 0-41.716 48.995z"/><path fill="#fff" class="cls-3" d="M143.102 171.978l-10.435-.079a71.55 71.55 0 0 1 124.877-47.169l-7.778 6.957a61.115 61.115 0 0 0-106.664 40.29z"/></svg>